<?xml version="1.0"?>
<svg xmlns="http://www.w3.org/2000/svg" xmlns:xlink="http://www.w3.org/1999/xlink" xmlns:svgjs="http://svgjs.com/svgjs" version="1.1" width="512" height="512" x="0" y="0" viewBox="0 0 512 512" style="enable-background:new 0 0 512 512" xml:space="preserve" class=""><g><g xmlns="http://www.w3.org/2000/svg"><path d="m256 0-160.398 256 160.398 256c141.385 0 256-114.615 256-256s-114.615-256-256-256z" fill="#0e0f2a" data-original="#28abfa" style="" class=""/><path d="m0 256c0 141.385 114.615 256 256 256v-512c-141.385 0-256 114.615-256 256z" fill="#0e0f2a" data-original="#14cfff" style="" class=""/><path d="m256 60-65.788 105 65.788 105c57.99 0 105-47.01 105-105s-47.01-105-105-105z" fill="#20213e" data-original="#373e9f" style="" class=""/><path d="m151 165c0 57.99 47.01 105 105 105v-210c-57.99 0-105 47.01-105 105z" fill="#20213e" data-original="#6241ea" style="" class=""/><path d="m424.649 335.443c-19.933-22.525-48.6-35.443-78.649-35.443h-90l-60 76 60 76c70.322 0 135.636-38.01 170.454-99.198l5.306-9.325z" fill="#20213e" data-original="#373e9f" style="" class=""/><path d="m166 300c-30.049 0-58.716 12.918-78.649 35.443l-7.11 8.035 5.306 9.325c34.817 61.187 100.131 99.197 170.453 99.197v-152z" fill="#20213e" data-original="#6241ea" style="" class=""/></g></g></svg>
